<?xml version="1.0" encoding="UTF-8"?>
<svg width="183px" height="40px" viewBox="0 0 183 40" version="1.1" xmlns="http://www.w3.org/2000/svg" xmlns:xlink="http://www.w3.org/1999/xlink">
    <title>0BB76F8D-0D07-4EEE-8480-1A5A025DA0FD</title>
    <g id="Dirtea-–-Full-Designs" stroke="none" stroke-width="1" fill="none" fill-rule="evenodd">
        <g id="00_Dirtea---HP---Mobile" transform="translate(-96.000000, -63.000000)" fill="#637381">
            <g id="_CORE-UI-/-Navigations-/-Mobile-2022" transform="translate(20.000000, 62.999918)">
                <path d="M88.6069995,7.39702937 L85.27613,7.39702937 L85.27613,32.6026081 L88.6069995,32.6026081 C96.0322883,32.6026081 100.345587,26.6845496 100.345587,19.9447198 C100.345587,12.9312079 95.5956128,7.39702937 88.6069995,7.39702937 M88.6069995,40 L76.5404536,40 L76.5404536,0 L88.6069995,0 C99.9630898,0 109.354321,7.01387441 109.354321,19.9447198 C109.354321,33.1503349 99.1984563,40 88.6069995,40 M114.675483,40 L123.544086,40 L123.544086,7.24985726e-05 L114.675483,7.24985726e-05 L114.675483,40 Z M145.161709,7.39708846 L139.507723,7.39708846 L139.507723,17.0408311 L145.161709,17.0408311 C148.265737,17.0408311 150.205158,15.068511 150.205158,11.9452782 C150.205158,9.15046327 147.989253,7.39708846 145.161709,7.39708846 L145.161709,7.39708846 Z M150.760693,40 L139.507723,21.0960314 L139.507723,40 L130.638969,40 L130.638969,7.24985726e-05 L145.161709,7.24985726e-05 C153.642139,7.24985726e-05 159.073912,5.04088912 159.073912,11.9452782 C159.073912,17.9176998 155.360447,21.8627025 150.039414,23.2876593 L160.792219,40 L150.760693,40 Z M178.941666,7.39708846 L178.941666,40 L170.351389,40 L170.351389,7.39708846 L162.56594,7.39708846 L162.56594,7.24985726e-05 L186.511168,7.24985726e-05 L186.511168,7.39708846 L178.941666,7.39708846 Z M193.606051,40 L193.606051,7.24985726e-05 L216.735836,7.24985726e-05 L216.735836,7.39708846 L202.313472,7.39708846 L202.313472,16.7671495 L215.701141,16.7671495 L215.701141,24.1641655 L202.313472,24.1641655 L202.313472,32.6026215 L217.551279,32.6026215 L217.551279,40 L193.606051,40 Z M240.489391,12.767048 C240.105636,11.5066626 239.667525,9.91785927 239.613169,9.58871634 C239.55845,9.7532878 239.174695,11.3975525 238.79094,12.767048 L235.77852,22.5202633 L243.447818,22.5202633 L240.489391,12.767048 Z M248.706237,40 L245.638735,29.9176418 L233.477803,29.9176418 L230.355945,40 L221.09872,40 L235.395852,7.24985726e-05 L243.831572,7.24985726e-05 L258.346853,40 L248.706237,40 Z" id="DIRTEA-Logo"></path>
            </g>
        </g>
    </g>
</svg>