<svg width="20px" height="20px" viewBox="0 0 20 20" version="1.1" xmlns="http://www.w3.org/2000/svg"
xmlns:xlink="http://www.w3.org/1999/xlink">
<defs>
    <path
        d="M16.714966,9.52691657 C15.6298019,9.77388029 14.1812899,9.95933766 12.5912742,10.0572974 C12.3952457,9.14244321 12.2839264,8.4318126 12.1739689,7.59324315 C13.5985376,7.66591541 14.9175743,7.8057239 16.0154477,8.00488063 C17.798882,8.32841062 18.3959889,8.70232796 18.4938613,8.8353806 C18.4353648,8.90734914 18.1168964,9.20784356 16.714966,9.52691657 M11.7795288,17.2877892 C11.184124,17.5831698 10.4172013,17.6451922 9.87870431,17.6451922 C9.34020735,17.6451922 8.57328464,17.5831698 7.97787983,17.2877892 C7.36840408,16.985465 7.07212011,16.4936488 7.07212011,15.7842849 C7.07212011,14.8724802 7.39183673,13.8212892 7.7303335,12.7083573 C7.92596489,12.0649568 8.12732678,11.4009133 8.29197942,10.6988214 C8.29328438,10.6930508 8.29492977,10.687374 8.29595105,10.6815095 C8.30911418,10.6254923 8.32244753,10.5697096 8.33504329,10.5131294 C8.57816408,9.4211688 8.75399403,8.63111008 8.89413601,7.54632754 C9.22037745,7.53938404 9.54968272,7.53544312 9.88165467,7.53544312 C10.2284351,7.53544312 10.5721518,7.53975936 10.9125209,7.54731277 C11.0431877,8.56219106 11.1685211,9.37289265 11.4223086,10.5131294 C11.4348476,10.5695689 11.448181,10.6252108 11.4612306,10.6811342 C11.4621952,10.6862011 11.4636136,10.6911272 11.4647484,10.6961941 C11.6295145,11.3992244 11.8311033,12.0640654 12.0270184,12.7082166 C12.3655152,13.8211954 12.6852885,14.8724333 12.6852885,15.7842849 C12.6852885,16.4936488 12.3890045,16.985465 11.7795288,17.2877892 M1.269448,8.8353806 C1.36732043,8.70232796 1.96442738,8.32841062 3.74786167,8.00488063 C4.85674215,7.80375345 6.19132496,7.66305356 7.63240433,7.59103811 C7.51240422,8.47258226 7.36346791,9.1730791 7.16732588,10.056969 C5.57833148,9.95891542 4.13078402,9.77341114 3.04658442,9.52649433 C1.64618594,9.20756207 1.32794451,8.90730222 1.269448,8.8353806 M4.93782024,4.78609506 C5.2033524,4.57994791 5.45418952,4.38524816 5.66610461,4.21349015 C6.29969386,3.69995198 6.76846025,3.15587175 7.1821344,2.67583132 C8.03512811,1.68605288 8.59858963,1.03214323 10.036208,1.03214323 C11.4280391,1.03214323 11.9650609,1.68591213 12.7779978,2.67554982 C13.1700549,3.15282223 13.6144809,3.69380603 14.2161268,4.20490459 C14.4648079,4.41616555 14.759333,4.65172878 15.0711631,4.90113212 C15.9167809,5.57732668 17.0287252,6.46698722 17.7559316,7.33361221 C17.4052362,7.23180535 17.0082997,7.13712967 16.5631929,7.04963207 C14.7711344,6.69734282 12.3983095,6.5032999 9.88165467,6.5032999 C7.36505656,6.5032999 4.9921749,6.69734282 3.20011648,7.04963207 C2.7732792,7.13356408 2.39092423,7.22401736 2.05095228,7.32108574 C2.848797,6.40773282 4.07501092,5.45586218 4.93782024,4.78609506 M19.7573519,8.86057428 C19.7573519,7.21289837 17.5504278,5.44793345 15.9389653,4.1592088 C15.634114,3.91538842 15.3461137,3.68507973 15.110539,3.48493778 C14.5853754,3.03886424 14.1914459,2.55933988 13.8105662,2.09562608 C12.9642675,1.06535947 12.0891461,0 10.036208,0 C7.95535499,0 7.04551016,1.05578869 6.16556607,2.07685984 C5.76323945,2.54385773 5.34712559,3.0267131 4.79228819,3.47644605 C4.59007523,3.64036916 4.34400408,3.83140949 4.08346483,4.03361573 C2.36017243,5.37136719 0,7.20351525 0,8.85302087 C0,8.90946034 0.011404266,8.96369477 0.0316596042,9.01455129 C0.16073774,9.61530556 0.959547,10.0901384 2.46332146,10.4618507 C3.62286865,10.748505 5.1861609,10.9631439 6.92193558,11.0767735 C6.79563758,11.5481814 6.65634667,12.007579 6.51977917,12.4566082 C6.16187812,13.6332984 5.82389199,14.7446821 5.82389199,15.7842849 C5.82389199,17.5957901 7.33969483,18.6773354 9.87870431,18.6773354 C12.4177138,18.6773354 13.9335166,17.5957901 13.9335166,15.7842849 C13.9335166,14.7446352 13.5954738,13.6332046 13.2375727,12.4564675 C13.1010619,12.007579 12.961771,11.548416 12.8354163,11.0771957 C14.5727229,10.9637069 16.1373769,10.749068 17.2980588,10.4623198 C18.8203297,10.0862913 19.620444,9.60465572 19.7355646,8.99381459 C19.7492951,8.95126214 19.7573519,8.90673923 19.7573519,8.86057428"
        id="path-1"></path>
</defs>
<g id="Dirtea-–-Full-Designs" stroke="none" stroke-width="1" fill="none" fill-rule="evenodd">
    <g id="00_Dirtea---HP---Desktop-WIP" transform="translate(-1338.000000, -92.000000)">
        <g id="Nav" transform="translate(80.000000, 79.000000)">
            <g id="_CORE-UI-/-Navigations-/-Desktop-2022" transform="translate(0.000000, -0.000000)">
                <g id="_BRANDING-/-Icons-/-Basket---white" transform="translate(1258.021686, 9.000000)">
                    <g id="_BRANDING-/-Icons-/-Mushroom---basket" transform="translate(0.000000, 4.514406)">
                        <mask id="mask-2" fill="white">
                            <use xlink:href="#path-1"></use>
                        </mask>
                        <use id="Fill-1" fill="#252525" xlink:href="#path-1"></use>
                    </g>
                </g>
            </g>
        </g>
    </g>
</g>
</svg>
