<?xml version="1.0" encoding="UTF-8"?>
<svg width="1200pt" height="1200pt" version="1.1" viewBox="0 0 1200 1200" xmlns="http://www.w3.org/2000/svg">
 <path d="m628.47 546.57h-164.67c3.5039 80.582-13.141 233.87-26.277 358.25-7.0078 72.699-14.016 134.89-14.891 162.92-0.875 27.152 2.6289 45.547 14.891 56.059 14.891 13.141 44.672 19.27 98.102 19.27 52.555 0 82.336-6.1328 97.227-19.27 12.262-10.512 15.766-28.906 14.891-56.059-0.875-28.027-7.0078-90.219-14.891-162.92-3.5039-31.531-7.0078-65.695-10.512-101.61-2.6289-0.875-5.2539-0.875-7.8828-1.75-20.145-5.2539-39.418-16.641-53.43-34.16-13.141-16.641-21.023-39.418-21.023-65.695 0-11.387 0.875-22.773 4.3789-35.035 7.8828-35.035 39.418-79.707 84.086-120zm229.49 592.99c28.906 0 44.672-2.6289 51.68-8.7578 4.3789-3.5039 5.2539-12.262 4.3789-24.527 0-16.641-3.5039-53.43-8.7578-97.227-7.0078-68.32-15.766-153.29-15.766-204.09h-63.066c0.875 50.805-7.8828 135.77-15.766 204.09-4.3789 43.797-7.8828 80.582-8.7578 97.227 0 12.262 0.875 21.023 5.2539 24.527 7.0078 6.1328 22.773 8.7578 50.805 8.7578zm88.469-334.6c-0.875 43.797 7.8828 129.64 15.766 198.83 4.3789 43.797 7.8828 81.461 8.7578 100.73 0.875 29.781-4.3789 52.555-24.527 70.074-18.395 14.016-45.547 21.898-88.469 21.898-42.918 0-70.074-7.8828-87.59-21.898-20.145-17.52-25.402-40.293-24.527-70.074 0-19.27 4.3789-56.934 8.7578-100.73 7.0078-69.195 16.641-155.04 15.766-198.83h-91.094c3.5039 30.656 6.1328 63.941 9.6367 94.598 7.8828 72.699 14.891 135.77 15.766 167.3 0.875 43.797-7.0078 76.203-35.035 100.73-26.277 21.898-67.445 32.41-134.02 32.41-67.445 0-108.61-10.512-134.89-32.41-28.027-24.527-35.914-56.934-34.16-100.73 0.875-31.531 7.0078-94.598 14.891-167.3 13.141-126.13 29.781-282.92 25.402-352.99h-235.62c-12.262 0-25.402-0.875-36.789-4.3789-31.531-7.8828-58.688-24.527-78.832-49.926-20.145-25.402-32.41-58.688-32.41-98.977 0-16.641 2.6289-34.16 7.0078-53.43 16.641-70.074 93.723-169.05 203.21-241.75 84.965-56.934 190.07-98.102 302.19-98.102 112.12 0 216.35 41.168 301.31 98.102 109.49 72.699 186.57 171.68 203.21 241.75 9.6367 38.539 8.7578 73.578 0 102.48-6.1328 20.145-14.891 37.664-27.152 52.555 11.387 6.1328 21.898 12.262 32.41 19.27 68.32 45.547 116.5 107.74 127.01 152.41 2.6289 12.262 4.3789 23.648 4.3789 35.035 0 26.277-7.8828 49.051-21.898 65.695-13.141 17.52-32.41 28.906-53.43 34.16-7.8828 1.75-16.641 3.5039-24.527 3.5039h-130.51zm10.512-334.6c13.141-10.512 23.648-25.402 28.906-43.797 6.1328-20.145 6.1328-44.672-0.875-73.578-14.016-57.809-81.461-142.77-179.56-207.59-76.203-51.68-170.8-88.469-269.78-88.469-99.855 0-194.45 36.789-270.66 88.469-98.102 64.816-165.55 149.78-179.56 207.59-3.5039 14.891-5.2539 28.027-5.2539 40.293 0 27.152 7.8828 48.176 20.145 63.941 11.387 14.891 28.906 25.402 47.301 29.781 7.0078 1.75 14.891 2.6289 23.648 2.6289h541.31c43.797-21.898 93.723-35.914 145.4-35.914 35.035 0 68.32 6.1328 98.977 16.641zm-328.47 275.91c3.5039 0.875 7.0078 1.75 11.387 1.75h437.08c4.3789 0 7.8828-0.875 11.387-1.75 8.7578-1.75 16.641-7.0078 21.898-14.016 6.1328-7.0078 9.6367-17.52 9.6367-30.656 0-7.0078-0.875-14.016-2.6289-21.898-7.8828-32.41-46.422-80.582-102.48-118.25-44.672-28.906-98.977-50.805-156.79-50.805-56.934 0-111.24 21.898-155.91 50.805-56.059 37.664-94.598 85.84-102.48 118.25-1.75 7.8828-2.6289 14.891-2.6289 21.898 0 13.141 3.5039 23.648 8.7578 30.656 6.1328 7.0078 14.016 12.262 22.773 14.016z"/>
</svg>
