<svg width="24" height="24" viewBox="0 0 24 24" fill="none" xmlns="http://www.w3.org/2000/svg">
<path fill-rule="evenodd" clip-rule="evenodd" d="M7.14367 6.04933C7.93027 6.90687 9.2592 7.27467 11.6947 7.3268C11.8335 5.4874 12.542 4.03847 13.5905 3.02147C14.7559 1.891 16.3015 1.33333 17.8349 1.33333C19.3681 1.33333 20.9137 1.891 22.0792 3.02147C23.2525 4.15953 24 5.8384 24 8V15.3333C24 17.3882 23.6578 19.5342 22.6223 21.1872C21.5567 22.8884 19.7967 24 17.1621 24C14.4681 24 12.5923 22.4013 10.8772 20.9214L10.8025 20.857C9.0754 19.3665 7.46613 17.9777 5.17793 17.6668C4.05587 17.6753 3.30053 18.0182 2.7732 18.4876C2.22629 18.9743 1.87358 19.6434 1.6534 20.362C1.43365 21.0791 1.35762 21.8081 1.33861 22.3665C1.32917 22.6435 1.33393 22.8734 1.34088 23.0321C1.34435 23.1113 1.34835 23.1724 1.35134 23.2124C1.35284 23.2324 1.35409 23.2471 1.35489 23.2561L1.35573 23.2653L1.3558 23.2661C1.3558 23.2661 1.35575 23.2656 0.692539 23.3333C0.0293194 23.4011 0.0292596 23.4005 0.0292596 23.4005L0.0291862 23.3997L0.0289929 23.3978L0.0284528 23.3922L0.0267997 23.3743C0.0254664 23.3593 0.0237129 23.3384 0.0217329 23.312C0.0177795 23.2593 0.0129328 23.1843 0.00881949 23.0903C0.000606156 22.9027 -0.0047338 22.6378 0.0060462 22.3211C0.0274729 21.6919 0.113166 20.8375 0.378573 19.9713C0.64356 19.1066 1.09945 18.1923 1.88673 17.4916C2.68687 16.7794 3.77887 16.3333 5.22067 16.3333C5.556 16.3333 5.87193 16.3409 6.17547 16.3483C6.73947 16.3619 7.26067 16.3744 7.78367 16.3352C8.5534 16.2775 9.18827 16.1097 9.71287 15.7165C10.717 14.9639 11.5874 13.1671 11.6642 8.66007C9.18487 8.60873 7.34393 8.24007 6.16113 6.95067C5.51873 6.25033 5.12213 5.33393 4.88293 4.20013C4.6446 3.07047 4.554 1.68333 4.554 0H5.88733C5.88733 1.65001 5.97753 2.92953 6.18753 3.92487C6.39667 4.91607 6.71587 5.583 7.14367 6.04933ZM22.6667 13.4937V8C22.6667 6.1616 22.0395 4.84047 21.1509 3.97853C20.2545 3.109 19.0508 2.66667 17.8349 2.66667C16.6189 2.66667 15.4153 3.109 14.5188 3.97853C13.6302 4.84047 13.0031 6.1616 13.0031 8C13.0031 9.84593 12.8842 11.3601 12.6531 12.5969C14.8786 11.3939 16.5659 12.2506 18.1547 13.0574C19.6266 13.8047 21.014 14.5092 22.6667 13.4937Z" fill="#2F7C39"/>
</svg>
