<?xml version="1.0" encoding="UTF-8"?>
<svg width="1200pt" height="1200pt" version="1.1" viewBox="0 0 1200 1200" xmlns="http://www.w3.org/2000/svg">
 <path d="m194.11 224.5c-5.0469-0.11328-9.9258 1.8086-13.539 5.3398-3.6094 3.5273-5.6445 8.3594-5.6445 13.41 0 5.0469 2.0352 9.8789 5.6445 13.41 3.6133 3.5273 8.4922 5.4492 13.539 5.3359h23.582v257.66l-154.89 326.36c-0.25781 0.50781-0.49609 1.0273-0.70703 1.5586-22.5 61.246 22.781 127.83 87.652 127.91h0.027344 351.99c64.938 0.035157 110.37-66.598 87.848-127.91-0.21094-0.53125-0.44922-1.0508-0.70703-1.5586l-154.89-326.25v-257.77h23.582c5.0469 0.11328 9.9297-1.8086 13.539-5.3359 3.6094-3.5312 5.6445-8.3633 5.6445-13.41 0-5.0508-2.0352-9.8828-5.6445-13.41-3.6094-3.5312-8.4922-5.4531-13.539-5.3398zm587.64 0h-0.015625-35.766c-5.0469-0.11328-9.9258 1.8086-13.535 5.3398-3.6094 3.5273-5.6445 8.3594-5.6445 13.41 0 5.0469 2.0352 9.8789 5.6445 13.41 3.6094 3.5273 8.4883 5.4492 13.535 5.3359h17.027v225.67c-82.488 45.309-134.3 132.65-134.4 227.94v0.019531c-0.007812 68.871 27.09 134.95 75.371 183.71 48.285 48.746 113.85 76.18 182.2 76.172 68.355 0.007813 133.92-27.426 182.2-76.172 48.277-48.754 75.379-114.83 75.371-183.71v-0.027344c0-95.238-51.949-182.52-134.4-227.8v-225.8h17.027c5.0117 0.058594 9.8398-1.8906 13.406-5.4141 3.5664-3.5234 5.5742-8.3242 5.5742-13.336 0-5.0156-2.0078-9.8164-5.5742-13.34-3.5664-3.5234-8.3945-5.4727-13.406-5.4141h-35.758-0.019532zm-526.55 37.492h141.41v262l-0.003906 0.003907c-0.011719 2.7773 0.59375 5.5195 1.7734 8.0352l56.891 119.82h-258.84l56.918-119.92c1.2031-2.5117 1.832-5.2539 1.8398-8.0391zm545.31 0h171.35v237.14l-0.003907 0.003906c0 3.5039 0.98047 6.9375 2.8359 9.9141 1.8516 2.9727 4.5039 5.3711 7.6484 6.9141 56.141 27.551 97.113 77.285 114.57 135.88h-421.51c17.438-58.648 58.434-108.43 114.61-136 3.1445-1.5469 5.7969-3.9414 7.6484-6.918 1.8555-2.9727 2.8398-6.4102 2.8398-9.9141zm-621.83 427.35h294.44l81.555 171.79c13.508 37.969-13.457 76.902-52.828 76.879l-0.003906 0.003906h-0.007813-351.98c-39.32-0.058593-66.199-38.953-52.707-76.879zm488.99 0h437.01c1.0625 8.6602 1.5586 17.434 1.5586 26.297 0 59.031-23.23 115.61-64.52 157.3-41.293 41.688-97.23 65.066-155.56 65.059-58.328 0.007812-114.27-23.371-155.56-65.059-41.293-41.695-64.52-98.281-64.52-157.31v-0.007812c0.015625-8.8594 0.70703-17.629 1.5586-26.281z"/>
</svg>
