<?xml version="1.0" encoding="UTF-8"?>
<svg width="1200pt" height="1200pt" version="1.1" viewBox="0 0 1200 1200" xmlns="http://www.w3.org/2000/svg">
 <g>
  <path d="m1018.9 219.94c-0.50781-0.71484-1.2461-1.1094-1.8359-1.7227-103.5-112.96-252.12-183.93-417.04-183.93-125.96 0-242.41 41.418-336.52 111.3-0.3125 0.17578-0.57031 0.42578-0.875 0.62109-138.47 103.22-228.32 268.21-228.32 453.8 0 311.94 253.78 565.71 565.71 565.71 110.95 0 214.46-32.234 301.9-87.648 1.1016-0.54688 2.1133-1.2031 3.082-1.9766 156.66-100.71 260.73-276.42 260.73-476.09 0-145.94-55.559-279.13-146.62-379.57-0.10547-0.15625-0.11328-0.33984-0.21875-0.48828zm-710.17-36.121c-2.7578-6.3672-6.3359-13.574-11.066-20.492 38.012-26.402 79.582-47.988 123.89-63.832 29.473 48.656 69.727 90.348 117.32 120.91 3.5 2.293 7.0469 4.5195 10.598 6.7461 10.211 6.4219 19.855 12.48 27.891 19.723 24.676 22.367 35.156 58.922 26.168 90.629-0.28516 0.90234-1.0039 3.2969-0.76953 3.3477-0.50391 0.23438-2.3281 0.79688-8.5391 0.63672l-97.332-1.0195c-9.543-0.29297-19.77 0.30078-29.43 5.6602-17.594 9.9766-24.625 32.41-18.316 58.527 0.63672 2.6953 1.3711 5.4141 2.1094 8.1445 2.6133 9.7109 5.0742 18.875 2.9141 25.312-3.8672 11.703-23.891 15.82-32.395 17.059-18.23 2.7383-37.633 2.9062-56.352 3.0625-33.082 0.23438-59.934-0.83594-79.77-15.543-7.5508-5.5312-13.543-12.797-18.332-22.215-12.738-25.102-4.8555-57.02 19.352-77.77 5.207-4.5859 10.094-10.07 14.246-15.961 26.164-37.805 29.176-92.523 7.8164-142.93zm291.29 947.61c-293.04 0-531.43-238.4-531.43-531.43 0-168.48 78.895-318.78 201.58-416.21 2.7773 4.293 5.082 9.0352 7.0312 13.531 13.141 31.012 18.867 76.172-4.418 109.8-2.543 3.625-5.5742 7.0312-8.6055 9.7031-36.078 30.922-47.359 79.93-27.438 119.17 7.2812 14.332 16.641 25.562 28.559 34.293 27.773 20.602 62.344 22.266 91.824 22.266 2.8945 0 5.7422-0.015625 8.5391-0.035156 19.938-0.16797 40.562-0.34375 61.121-3.4336 31.59-4.6055 52.867-18.883 59.883-40.121 5.457-16.18 1.1367-32.203-2.3281-45.074-0.65234-2.4453-1.3047-4.8711-1.8906-7.2734-2.4766-10.312-1.0195-19.008 1.7734-20.602 2.6953-1.5 8.6367-1.3711 12.07-1.2734l97.316 1.0195c6.5977 0.14063 22.066 0.53516 32.543-9.9609 6.3945-6 8.7383-13.688 10.246-18.609 12.574-44.289-1.9102-94.805-36.043-125.75-10.277-9.2656-21.664-16.414-32.66-23.32-3.3633-2.1172-6.7461-4.2344-10.195-6.4883-40.996-26.34-76.055-61.617-102.39-102.82 46.098-13.082 94.672-20.242 144.91-20.242 148.37 0 282.66 61.184 379.16 159.56-3.0664 2.4219-6.3359 4.7461-9.3047 7.1875-45.434 37.324-100.65 88.922-124.47 157.31-22.113 64.043-11.082 151.2 52.816 193.86 16.441 10.965 34.504 17.703 51.965 24.223 19.688 7.3477 38.285 14.297 52.398 26.391 7.082 6.1602 11.117 12.605 10.766 17.562-0.15234 3.1133-2.3594 7.3984-4.6211 11.566-10.68 18.691-24.457 35.113-40.965 48.793-5.8945 4.8789-10.23 7.3672-13.344 7.207-1.1367-0.035156-3.8672-0.6875-9.1562-4.6875-12.152-9.332-21.797-22.566-31.992-36.586-14.312-19.637-29.113-39.945-52.617-52.09-21.98-11.52-46.707-12.766-66.512-13.762-33.332-1.8242-74.832-4.1016-110.56 14.449-56.066 29.398-74.816 96.629-68.539 150.24 2.9805 25.004 11.184 42.613 25.129 53.848 20.375 16.383 47.543 14.398 67.215 13.008 31.02-2.0078 70.73 1.0312 83.504 26.695 6.7461 13.551 4.3867 30.316 1.6758 49.73-2.0586 14.59-4.168 29.684-2.5273 45.184 3.1484 30.66 21.176 60.184 50.859 83.168 5.6445 4.3281 11.754 8.3906 18.223 12.305-76.715 43.031-165.07 67.691-259.11 67.691zm292.86-88.277c-11.883-5.8633-22.172-12.074-31.047-18.875-21.797-16.883-35.523-38.578-37.684-59.574-1.207-11.367 0.53516-23.754 2.3789-36.871 3.0625-21.879 6.5469-46.691-4.9219-69.75-11.684-23.473-41.352-50.324-116.54-45.637-15.703 1.1562-33.531 2.418-43.375-5.5078-6.5273-5.25-10.746-15.738-12.59-31.156-4.7539-40.582 8.9883-94.137 50.355-115.83 27.32-14.172 62.109-12.289 92.879-10.605 21.027 1.0625 38.219 2.4688 52.5 9.9375 16.391 8.4727 28.207 24.691 40.715 41.871 11.199 15.359 22.77 31.246 38.922 43.66 6.4297 4.8711 16.473 11.391 28.91 11.695 15.117 0.48438 27.406-7.75 36.246-15.074 19.703-16.324 36.145-35.902 49.051-58.492 4.2188-7.7773 8.3867-16.223 8.8906-26.191 1.1211-15.77-6.8789-31.926-22.582-45.586-18.816-16.137-41.184-24.484-62.797-32.562-16.355-6.1016-31.809-11.879-44.934-20.625-48.918-32.66-56.836-103.79-39.457-154.1 20.992-60.285 71.871-107.58 113.84-142.05 3.4453-2.8281 7.1992-5.5352 10.781-8.332 80.301 93.113 129.02 214.2 129.02 346.51 0 184.87-94.941 347.92-238.57 443.15z"/>
  <path d="m402.22 778.18c-6.4297-4.7969-12.488-9.3242-16.039-14.508-7.1133-10.438-6.0273-25.297-4.7539-42.504 1.1367-15.234 2.293-30.996-1.9766-46.883-7.25-27.012-30.016-49.855-60.938-61.105-25.547-9.3086-52.652-9.8867-78.266-9.9102-16.355 0.058594-50.391 0.18359-70.062 23.68-14.547 17.41-17.16 44.07-6.6289 67.918 11 24.91 33.668 48.141 69.309 71.016 5.1211 3.2969 10.832 6.2695 16.641 9.2578 11.148 5.7422 21.695 11.168 26.434 19.086 5.2578 8.7539 6.832 25.438 8.3359 41.566 3.3984 36.109 8.5195 90.52 69.945 90.52 0.53516 0 1.0703 0 1.625-0.007813 20.492-0.31641 40.934-11.242 57.555-30.762 20.941-24.535 33.699-64.828 12.254-95.324-6.7266-9.5742-15.602-16.195-23.434-22.039zm-14.918 95.121c-9.9961 11.734-21.645 18.559-31.992 18.715-27.641 0.35156-32.527-13.043-36.898-59.438-1.875-19.938-3.8164-40.562-13.074-55.992-9.7617-16.289-25.898-24.602-40.129-31.926-4.8203-2.4766-9.5742-4.8984-13.828-7.625-29.379-18.867-48.363-37.711-56.449-56.016-5.1406-11.645-4.4883-24.836 1.5586-32.074 8.2852-9.9023 26-11.324 43.895-11.391 1.207-0.007812 2.3945-0.007812 3.5977-0.007812 22.148 0 43.578 0.84375 62.812 7.8438 20.105 7.3242 35.258 21.797 39.543 37.777 2.7617 10.289 1.8594 22.516 0.90234 35.473-1.5234 20.633-3.2656 44.027 10.629 64.371 6.7617 9.9023 15.836 16.676 23.855 22.652 6.3281 4.7227 12.305 9.1836 15.871 14.273 10.348 14.699 2.4297 38.465-10.293 53.363z"/>
 </g>
</svg>
