<?xml version="1.0" encoding="UTF-8"?>
<svg width="1200pt" height="1200pt" version="1.1" viewBox="0 0 1200 1200" xmlns="http://www.w3.org/2000/svg">
 <path d="m934.8 350c-50.398 0-98.75 16.648-140.4 48.199-2.1484 1-4.1484 2.3008-6 3.8984l-405.1 354.2c-1.3008 0.64844-2.6016 1.5-3.75 2.4492-33.801 27.004-73.352 41.254-114.35 41.254-104.85 0-190.2-89.699-190.2-200s85.352-200 190.2-200c41 0 80.551 14.25 114.3 41.25 0.69922 0.55078 1.4492 1.1016 2.1992 1.5508l57.551 57.199h-89.25c-13.801 0-25 11.199-25 25s11.199 25 25 25h149.9c3.3008 0 6.6484-0.64844 9.75-1.9492 3.0508-1.25 5.8008-3.1016 8.0508-5.3984 0.14844-0.14844 0.19922-0.35156 0.35156-0.5 2.1016-2.25 3.8516-4.8008 5.0508-7.6992 0.80078-1.9492 0.94922-4.0508 1.25-6.1016 0.14844-1.1016 0.64844-2.1523 0.64844-3.3516v-150c0-13.801-11.199-25-25-25s-25 11.199-25 25v89.949l-62.25-61.801c-2.0508-2-4.3984-3.6016-6.8984-4.75-41.703-31.699-90.203-48.398-140.65-48.398-132.45 0-240.2 112.15-240.2 250s107.75 250 240.2 250c50.398 0 98.801-16.648 140.4-48.199 2.1484-1 4.1484-2.3008 6-3.8984l405.1-354.2c1.3008-0.64844 2.5508-1.5 3.75-2.4492 33.801-27.004 73.352-41.254 114.35-41.254 104.85 0 190.2 89.699 190.2 200s-85.352 200-190.2 200c-41 0-80.551-14.25-114.35-41.25-0.69922-0.55078-1.4492-1.1016-2.1992-1.5508l-57.551-57.199h89.301c13.801 0 25-11.199 25-25s-11.199-25-25-25h-150c-3.3008 0-6.5508 0.64844-9.6484 1.9492-2 0.85156-3.6016 2.1992-5.25 3.5-0.89844 0.69922-2 1.0508-2.8516 1.8984-1.0508 1.0508-1.5 2.3984-2.3516 3.5508-1.0508 1.5-2.25 2.8516-3 4.5508-1.3008 3.1484-1.9492 6.4492-1.9492 9.8008v149.75c0 13.801 11.199 25 25 25s25-11.199 25-25v-89.898l62.199 61.75c2.0508 2.0508 4.3984 3.6484 6.8984 4.75 41.754 31.699 90.254 48.398 140.75 48.398 132.45 0 240.2-112.15 240.2-250s-107.75-250-240.2-250z"/>
</svg>
