<svg width="19" height="27" viewBox="0 0 19 27" fill="none" xmlns="http://www.w3.org/2000/svg">
<path fill-rule="evenodd" clip-rule="evenodd" d="M9.5 6.39584C11.1051 6.39584 12.4063 5.09468 12.4063 3.48959C12.4063 1.88452 11.1051 0.583344 9.5 0.583344C7.89491 0.583344 6.59375 1.88452 6.59375 3.48959C6.59375 5.09468 7.89491 6.39584 9.5 6.39584ZM18.4901 7.97193C18.6897 8.65678 18.2963 9.37385 17.6114 9.57341C16.0773 10.0205 14.6911 10.3572 13.375 10.5816V18.0172V18.0208V25.125C13.375 25.8156 12.8318 26.3841 12.1418 26.4154C11.452 26.4466 10.8595 25.9297 10.797 25.242L10.1511 18.1378C10.1476 18.0987 10.1458 18.0597 10.1458 18.0208H8.85417C8.85417 18.0597 8.85243 18.0987 8.84887 18.1378L8.20304 25.242C8.14052 25.9297 7.54804 26.4466 6.85816 26.4154C6.16828 26.3841 5.625 25.8156 5.625 25.125V10.5578C4.31228 10.3314 2.9311 10.0015 1.40468 9.57799C0.717251 9.38728 0.314638 8.67538 0.505353 7.98802C0.696132 7.30059 1.40797 6.89798 2.09539 7.08869C5.07159 7.91452 7.30792 8.32333 9.50562 8.33315C11.6989 8.34297 13.9296 7.95566 16.8886 7.09328C17.5735 6.89365 18.2905 7.28703 18.4901 7.97193Z" fill="#2F7C39"/>
</svg>
