<?xml version="1.0" encoding="UTF-8"?>
<svg width="1200pt" height="1200pt" version="1.1" viewBox="0 0 1200 1200" xmlns="http://www.w3.org/2000/svg">
 <path d="m1015.1 269.11c-3.9492-4.7891-9.7305-7.7266-15.938-8.1133-1.2852-0.085938-32.293-1.9688-79.176-1.9688-261.61 0-368.34 51.805-411.8 95.281-99.828 99.816-81.793 245.12-73.094 290.5-13.992 17.34-26.387 34.402-37.43 51.047-8.1953-7.3672-18.266-17.074-28.777-28.754 15.551-10.934 26.93-25.738 33.336-43.957 19.598-55.754-11.762-126.39-31.078-155.95-21.145-32.316-25.812-117.29-25.824-147.31 0-8.6992-5.0273-16.633-12.898-20.34-7.8711-3.707-17.184-2.5547-23.902 2.9766-117.04 96.383-150.68 236.46-115.6 316.2 20.242 46.008 56.195 71.34 101.22 71.34 12.312 0 23.184-1.9062 31.535-4.0312 17.855 21.445 35.773 38.23 48.059 48.816-56.328 99.961-62.555 176.29-62.953 182.14-0.83984 12.371 8.4961 23.062 20.867 23.93 0.52734 0.035156 1.0664 0.046875 1.5977 0.046875 11.688 0 21.551-9.0469 22.414-20.879 0.046875-0.61328 5.0039-62.473 48.648-146.29 14.734-28.285 35.207-61.332 63.168-96.562 40.129 7.3203 78.973 11.23 115.49 11.23 381.66 0 436.61-398.15 437.11-402.17 0.80859-6.1641-0.98828-12.383-4.9727-17.168zm-720.97 375.96c-27.227 0-46.859-14.543-60.023-44.473-29.137-66.238 9.1328-162.97 68.531-229.91 3.3125 39.266 11.352 91.332 30.84 121.14 16.895 25.848 38.988 80.305 26.293 116.39-3.5039 9.9609-9.707 17.676-18.672 23.398-13.117-19.57-24.238-41.594-29.258-64.883-2.6172-12.145-14.617-19.895-26.734-17.242-12.145 2.6172-19.871 14.594-17.258 26.734 5.3281 24.742 15.77 47.902 28.355 68.746-0.69531 0.039063-1.3555 0.097656-2.0742 0.097656zm614.35-182.03c-85.598 141.29-223.33 200.53-406.79 174.3 46.211-49.883 107.89-102.19 190-150.59 10.715-6.3125 14.258-20.102 7.9453-30.805-6.2891-10.715-20.113-14.27-30.793-7.957-82.152 48.434-145.39 100.55-194.22 151.82-4.5-55.621 0.011719-148.32 65.387-213.7 52.164-52.176 190.67-82.094 379.99-82.094 20.438 0 37.934 0.37109 50.977 0.79297-7.25 33.195-24.719 95.836-62.496 158.22z"/>
</svg>
