<svg width="25" height="23" viewBox="0 0 25 23" fill="none" xmlns="http://www.w3.org/2000/svg">
<path fill-rule="evenodd" clip-rule="evenodd" d="M22.5621 2.64798C24.1211 4.36485 24.392 6.77565 23.5781 8.84585C22.1863 12.3858 19.055 15.5928 16.0846 18.635C14.6318 20.1229 13.2175 21.5713 12.0641 23C11.7979 22.7405 11.5226 22.4735 11.2401 22.1995C7.44726 18.5203 2.35705 13.5825 0.453594 8.84585C0.150861 8.09259 0.00607418 7.28599 0.0280542 6.47532C0.0500342 5.66472 0.238328 4.86699 0.581441 4.13092C0.924561 3.39479 1.4153 2.73579 2.02373 2.19399C4.44573 0.0310472 8.23726 0.368254 10.5419 2.65385L12.0641 4.16339L13.827 2.41502C14.4052 1.84161 15.0952 1.39105 15.8548 1.09083C16.6144 0.790607 17.4277 0.647014 18.2451 0.668814C19.0625 0.690607 19.8669 0.877347 20.6091 1.21762C21.3513 1.5579 22.0159 2.04458 22.5621 2.64798ZM8.64566 12.5344L13.9392 5.69059L12.921 10.8574H15.9387C16.2157 10.8574 16.3718 11.1756 16.2023 11.3947L10.9088 18.2385L11.9271 13.0717H8.90933C8.63233 13.0717 8.47619 12.7535 8.64566 12.5344Z" fill="#2F7C39"/>
</svg>
