<?xml version="1.0" encoding="UTF-8"?>
<svg width="1200pt" height="1200pt" version="1.1" viewBox="0 0 1200 1200" xmlns="http://www.w3.org/2000/svg">
 <path d="m492.5 340c-16.25-25-25-53.75-25-85 0-87.5 71.25-158.75 158.75-158.75s158.75 71.25 158.75 158.75c0 31.25-8.75 61.25-25 85h-66.25c25-20 42.5-51.25 42.5-85 0-60-48.75-108.75-108.75-108.75s-108.75 48.75-108.75 108.75c0 35 16.25 65 42.5 85zm-171.25 265c-18.75 0-32.5 15-32.5 32.5 0 18.75 15 32.5 32.5 32.5s32.5-15 32.5-32.5-15-32.5-32.5-32.5zm813.75 11.25c-16.25 56.25-62.5 97.5-117.5 106.25-5 67.5-32.5 132.5-77.5 183.75v97.5c0 41.25-33.75 75-75 75h-36.25c-35 0-66.25-25-73.75-58.75l-2.5-10h-228.75l-2.5 10c-7.5 33.75-38.75 58.75-73.75 58.75h-36.25c-41.25 0-75-33.75-75-75v-37.5l-143.75-90c-47.5-30-76.25-81.25-76.25-137.5v-77.5c0-13.75 11.25-25 25-25 26.25 0 50-16.25 58.75-40 15-41.25 38.75-80 70-112.5l-21.25-61.25c-5-12.5-2.5-26.25 6.25-36.25s21.25-15 33.75-13.75l22.5 2.5c28.75 3.75 56.25 15 78.75 32.5 32.5-11.25 66.25-16.25 100-16.25h212.5c162.5 0 298.75 123.75 313.75 281.25 32.5-8.75 60-33.75 70-67.5zm-167.5 76.25c-3.75-138.75-122.5-252.5-265-252.5h-212.5c-21.25 0-42.5 2.5-62.5 7.5l16.25 25-42.5 27.5-18.75-27.5c-5-7.5-10-13.75-17.5-20-16.25-15-38.75-26.25-61.25-28.75h-3.75l21.25 58.75c3.75 10 1.25 20-6.25 26.25-31.25 28.75-55 65-68.75 103.75-12.5 36.25-43.75 62.5-81.25 70v55c0 38.75 20 75 52.5 95l157.5 98.75c7.5 5 11.25 12.5 11.25 21.25v51.25c0 13.75 11.25 25 25 25h36.25c11.25 0 22.5-8.75 25-20l21.25-97.5 48.75 10-7.5 37.5h207.5l-7.5-37.5 48.75-10 21.25 97.5c2.5 11.25 12.5 20 25 20h36.25c13.75 0 25-11.25 25-25v-107.5c0-6.25 2.5-12.5 7.5-17.5 45-51.25 70-116.25 68.75-186.25z"/>
</svg>
